G04 #@! TF.GenerationSoftware,KiCad,Pcbnew,(5.0.1-3-g963ef8bb5)*
G04 #@! TF.CreationDate,2020-10-05T18:58:13+01:00*
G04 #@! TF.ProjectId,CMOS_Battery_Holder,434D4F535F426174746572795F486F6C,rev?*
G04 #@! TF.SameCoordinates,Original*
G04 #@! TF.FileFunction,Legend,Top*
G04 #@! TF.FilePolarity,Positive*
%FSLAX46Y46*%
G04 Gerber Fmt 4.6, Leading zero omitted, Abs format (unit mm)*
G04 Created by KiCad (PCBNEW (5.0.1-3-g963ef8bb5)) date Monday, 05 October 2020 at 18:58:13*
%MOMM*%
%LPD*%
G01*
G04 APERTURE LIST*
%ADD10C,0.250000*%
%ADD11C,0.300000*%
%ADD12C,0.120000*%
%ADD13C,0.150000*%
G04 APERTURE END LIST*
D10*
X164227190Y-81587714D02*
X164465285Y-82254380D01*
X164703380Y-81587714D01*
X165274809Y-81254380D02*
X165370047Y-81254380D01*
X165465285Y-81302000D01*
X165512904Y-81349619D01*
X165560523Y-81444857D01*
X165608142Y-81635333D01*
X165608142Y-81873428D01*
X165560523Y-82063904D01*
X165512904Y-82159142D01*
X165465285Y-82206761D01*
X165370047Y-82254380D01*
X165274809Y-82254380D01*
X165179571Y-82206761D01*
X165131952Y-82159142D01*
X165084333Y-82063904D01*
X165036714Y-81873428D01*
X165036714Y-81635333D01*
X165084333Y-81444857D01*
X165131952Y-81349619D01*
X165179571Y-81302000D01*
X165274809Y-81254380D01*
X166560523Y-82254380D02*
X165989095Y-82254380D01*
X166274809Y-82254380D02*
X166274809Y-81254380D01*
X166179571Y-81397238D01*
X166084333Y-81492476D01*
X165989095Y-81540095D01*
X167179571Y-81254380D02*
X167274809Y-81254380D01*
X167370047Y-81302000D01*
X167417666Y-81349619D01*
X167465285Y-81444857D01*
X167512904Y-81635333D01*
X167512904Y-81873428D01*
X167465285Y-82063904D01*
X167417666Y-82159142D01*
X167370047Y-82206761D01*
X167274809Y-82254380D01*
X167179571Y-82254380D01*
X167084333Y-82206761D01*
X167036714Y-82159142D01*
X166989095Y-82063904D01*
X166941476Y-81873428D01*
X166941476Y-81635333D01*
X166989095Y-81444857D01*
X167036714Y-81349619D01*
X167084333Y-81302000D01*
X167179571Y-81254380D01*
X168131952Y-81254380D02*
X168227190Y-81254380D01*
X168322428Y-81302000D01*
X168370047Y-81349619D01*
X168417666Y-81444857D01*
X168465285Y-81635333D01*
X168465285Y-81873428D01*
X168417666Y-82063904D01*
X168370047Y-82159142D01*
X168322428Y-82206761D01*
X168227190Y-82254380D01*
X168131952Y-82254380D01*
X168036714Y-82206761D01*
X167989095Y-82159142D01*
X167941476Y-82063904D01*
X167893857Y-81873428D01*
X167893857Y-81635333D01*
X167941476Y-81444857D01*
X167989095Y-81349619D01*
X168036714Y-81302000D01*
X168131952Y-81254380D01*
X163655761Y-83004380D02*
X163846238Y-83004380D01*
X163941476Y-83052000D01*
X164036714Y-83147238D01*
X164084333Y-83337714D01*
X164084333Y-83671047D01*
X164036714Y-83861523D01*
X163941476Y-83956761D01*
X163846238Y-84004380D01*
X163655761Y-84004380D01*
X163560523Y-83956761D01*
X163465285Y-83861523D01*
X163417666Y-83671047D01*
X163417666Y-83337714D01*
X163465285Y-83147238D01*
X163560523Y-83052000D01*
X163655761Y-83004380D01*
X164941476Y-83956761D02*
X164846238Y-84004380D01*
X164655761Y-84004380D01*
X164560523Y-83956761D01*
X164512904Y-83909142D01*
X164465285Y-83813904D01*
X164465285Y-83528190D01*
X164512904Y-83432952D01*
X164560523Y-83385333D01*
X164655761Y-83337714D01*
X164846238Y-83337714D01*
X164941476Y-83385333D01*
X165227190Y-83337714D02*
X165608142Y-83337714D01*
X165370047Y-83004380D02*
X165370047Y-83861523D01*
X165417666Y-83956761D01*
X165512904Y-84004380D01*
X165608142Y-84004380D01*
X166655761Y-83099619D02*
X166703380Y-83052000D01*
X166798619Y-83004380D01*
X167036714Y-83004380D01*
X167131952Y-83052000D01*
X167179571Y-83099619D01*
X167227190Y-83194857D01*
X167227190Y-83290095D01*
X167179571Y-83432952D01*
X166608142Y-84004380D01*
X167227190Y-84004380D01*
X167846238Y-83004380D02*
X167941476Y-83004380D01*
X168036714Y-83052000D01*
X168084333Y-83099619D01*
X168131952Y-83194857D01*
X168179571Y-83385333D01*
X168179571Y-83623428D01*
X168131952Y-83813904D01*
X168084333Y-83909142D01*
X168036714Y-83956761D01*
X167941476Y-84004380D01*
X167846238Y-84004380D01*
X167751000Y-83956761D01*
X167703380Y-83909142D01*
X167655761Y-83813904D01*
X167608142Y-83623428D01*
X167608142Y-83385333D01*
X167655761Y-83194857D01*
X167703380Y-83099619D01*
X167751000Y-83052000D01*
X167846238Y-83004380D01*
X168560523Y-83099619D02*
X168608142Y-83052000D01*
X168703380Y-83004380D01*
X168941476Y-83004380D01*
X169036714Y-83052000D01*
X169084333Y-83099619D01*
X169131952Y-83194857D01*
X169131952Y-83290095D01*
X169084333Y-83432952D01*
X168512904Y-84004380D01*
X169131952Y-84004380D01*
X169751000Y-83004380D02*
X169846238Y-83004380D01*
X169941476Y-83052000D01*
X169989095Y-83099619D01*
X170036714Y-83194857D01*
X170084333Y-83385333D01*
X170084333Y-83623428D01*
X170036714Y-83813904D01*
X169989095Y-83909142D01*
X169941476Y-83956761D01*
X169846238Y-84004380D01*
X169751000Y-84004380D01*
X169655761Y-83956761D01*
X169608142Y-83909142D01*
X169560523Y-83813904D01*
X169512904Y-83623428D01*
X169512904Y-83385333D01*
X169560523Y-83194857D01*
X169608142Y-83099619D01*
X169655761Y-83052000D01*
X169751000Y-83004380D01*
X139382761Y-101844142D02*
X139335142Y-101891761D01*
X139192285Y-101939380D01*
X139097047Y-101939380D01*
X138954190Y-101891761D01*
X138858952Y-101796523D01*
X138811333Y-101701285D01*
X138763714Y-101510809D01*
X138763714Y-101367952D01*
X138811333Y-101177476D01*
X138858952Y-101082238D01*
X138954190Y-100987000D01*
X139097047Y-100939380D01*
X139192285Y-100939380D01*
X139335142Y-100987000D01*
X139382761Y-101034619D01*
X140382761Y-101939380D02*
X140049428Y-101463190D01*
X139811333Y-101939380D02*
X139811333Y-100939380D01*
X140192285Y-100939380D01*
X140287523Y-100987000D01*
X140335142Y-101034619D01*
X140382761Y-101129857D01*
X140382761Y-101272714D01*
X140335142Y-101367952D01*
X140287523Y-101415571D01*
X140192285Y-101463190D01*
X139811333Y-101463190D01*
X140763714Y-101034619D02*
X140811333Y-100987000D01*
X140906571Y-100939380D01*
X141144666Y-100939380D01*
X141239904Y-100987000D01*
X141287523Y-101034619D01*
X141335142Y-101129857D01*
X141335142Y-101225095D01*
X141287523Y-101367952D01*
X140716095Y-101939380D01*
X141335142Y-101939380D01*
X141954190Y-100939380D02*
X142049428Y-100939380D01*
X142144666Y-100987000D01*
X142192285Y-101034619D01*
X142239904Y-101129857D01*
X142287523Y-101320333D01*
X142287523Y-101558428D01*
X142239904Y-101748904D01*
X142192285Y-101844142D01*
X142144666Y-101891761D01*
X142049428Y-101939380D01*
X141954190Y-101939380D01*
X141858952Y-101891761D01*
X141811333Y-101844142D01*
X141763714Y-101748904D01*
X141716095Y-101558428D01*
X141716095Y-101320333D01*
X141763714Y-101129857D01*
X141811333Y-101034619D01*
X141858952Y-100987000D01*
X141954190Y-100939380D01*
X142620857Y-100939380D02*
X143239904Y-100939380D01*
X142906571Y-101320333D01*
X143049428Y-101320333D01*
X143144666Y-101367952D01*
X143192285Y-101415571D01*
X143239904Y-101510809D01*
X143239904Y-101748904D01*
X143192285Y-101844142D01*
X143144666Y-101891761D01*
X143049428Y-101939380D01*
X142763714Y-101939380D01*
X142668476Y-101891761D01*
X142620857Y-101844142D01*
X143620857Y-101034619D02*
X143668476Y-100987000D01*
X143763714Y-100939380D01*
X144001809Y-100939380D01*
X144097047Y-100987000D01*
X144144666Y-101034619D01*
X144192285Y-101129857D01*
X144192285Y-101225095D01*
X144144666Y-101367952D01*
X143573238Y-101939380D01*
X144192285Y-101939380D01*
X137192285Y-103594142D02*
X137144666Y-103641761D01*
X137001809Y-103689380D01*
X136906571Y-103689380D01*
X136763714Y-103641761D01*
X136668476Y-103546523D01*
X136620857Y-103451285D01*
X136573238Y-103260809D01*
X136573238Y-103117952D01*
X136620857Y-102927476D01*
X136668476Y-102832238D01*
X136763714Y-102737000D01*
X136906571Y-102689380D01*
X137001809Y-102689380D01*
X137144666Y-102737000D01*
X137192285Y-102784619D01*
X137620857Y-103689380D02*
X137620857Y-102689380D01*
X137954190Y-103403666D01*
X138287523Y-102689380D01*
X138287523Y-103689380D01*
X138954190Y-102689380D02*
X139144666Y-102689380D01*
X139239904Y-102737000D01*
X139335142Y-102832238D01*
X139382761Y-103022714D01*
X139382761Y-103356047D01*
X139335142Y-103546523D01*
X139239904Y-103641761D01*
X139144666Y-103689380D01*
X138954190Y-103689380D01*
X138858952Y-103641761D01*
X138763714Y-103546523D01*
X138716095Y-103356047D01*
X138716095Y-103022714D01*
X138763714Y-102832238D01*
X138858952Y-102737000D01*
X138954190Y-102689380D01*
X139763714Y-103641761D02*
X139906571Y-103689380D01*
X140144666Y-103689380D01*
X140239904Y-103641761D01*
X140287523Y-103594142D01*
X140335142Y-103498904D01*
X140335142Y-103403666D01*
X140287523Y-103308428D01*
X140239904Y-103260809D01*
X140144666Y-103213190D01*
X139954190Y-103165571D01*
X139858952Y-103117952D01*
X139811333Y-103070333D01*
X139763714Y-102975095D01*
X139763714Y-102879857D01*
X139811333Y-102784619D01*
X139858952Y-102737000D01*
X139954190Y-102689380D01*
X140192285Y-102689380D01*
X140335142Y-102737000D01*
X141858952Y-103165571D02*
X142001809Y-103213190D01*
X142049428Y-103260809D01*
X142097047Y-103356047D01*
X142097047Y-103498904D01*
X142049428Y-103594142D01*
X142001809Y-103641761D01*
X141906571Y-103689380D01*
X141525619Y-103689380D01*
X141525619Y-102689380D01*
X141858952Y-102689380D01*
X141954190Y-102737000D01*
X142001809Y-102784619D01*
X142049428Y-102879857D01*
X142049428Y-102975095D01*
X142001809Y-103070333D01*
X141954190Y-103117952D01*
X141858952Y-103165571D01*
X141525619Y-103165571D01*
X142954190Y-103689380D02*
X142954190Y-103165571D01*
X142906571Y-103070333D01*
X142811333Y-103022714D01*
X142620857Y-103022714D01*
X142525619Y-103070333D01*
X142954190Y-103641761D02*
X142858952Y-103689380D01*
X142620857Y-103689380D01*
X142525619Y-103641761D01*
X142478000Y-103546523D01*
X142478000Y-103451285D01*
X142525619Y-103356047D01*
X142620857Y-103308428D01*
X142858952Y-103308428D01*
X142954190Y-103260809D01*
X143287523Y-103022714D02*
X143668476Y-103022714D01*
X143430380Y-102689380D02*
X143430380Y-103546523D01*
X143478000Y-103641761D01*
X143573238Y-103689380D01*
X143668476Y-103689380D01*
X143858952Y-103022714D02*
X144239904Y-103022714D01*
X144001809Y-102689380D02*
X144001809Y-103546523D01*
X144049428Y-103641761D01*
X144144666Y-103689380D01*
X144239904Y-103689380D01*
X144954190Y-103641761D02*
X144858952Y-103689380D01*
X144668476Y-103689380D01*
X144573238Y-103641761D01*
X144525619Y-103546523D01*
X144525619Y-103165571D01*
X144573238Y-103070333D01*
X144668476Y-103022714D01*
X144858952Y-103022714D01*
X144954190Y-103070333D01*
X145001809Y-103165571D01*
X145001809Y-103260809D01*
X144525619Y-103356047D01*
X145430380Y-103689380D02*
X145430380Y-103022714D01*
X145430380Y-103213190D02*
X145478000Y-103117952D01*
X145525619Y-103070333D01*
X145620857Y-103022714D01*
X145716095Y-103022714D01*
X145954190Y-103022714D02*
X146192285Y-103689380D01*
X146430380Y-103022714D02*
X146192285Y-103689380D01*
X146097047Y-103927476D01*
X146049428Y-103975095D01*
X145954190Y-104022714D01*
X161758857Y-103322333D02*
X161711238Y-103274714D01*
X161616000Y-103131857D01*
X161568380Y-103036619D01*
X161520761Y-102893761D01*
X161473142Y-102655666D01*
X161473142Y-102465190D01*
X161520761Y-102227095D01*
X161568380Y-102084238D01*
X161616000Y-101989000D01*
X161711238Y-101846142D01*
X161758857Y-101798523D01*
X162568380Y-102893761D02*
X162473142Y-102941380D01*
X162282666Y-102941380D01*
X162187428Y-102893761D01*
X162139809Y-102846142D01*
X162092190Y-102750904D01*
X162092190Y-102465190D01*
X162139809Y-102369952D01*
X162187428Y-102322333D01*
X162282666Y-102274714D01*
X162473142Y-102274714D01*
X162568380Y-102322333D01*
X162901714Y-103322333D02*
X162949333Y-103274714D01*
X163044571Y-103131857D01*
X163092190Y-103036619D01*
X163139809Y-102893761D01*
X163187428Y-102655666D01*
X163187428Y-102465190D01*
X163139809Y-102227095D01*
X163092190Y-102084238D01*
X163044571Y-101989000D01*
X162949333Y-101846142D01*
X162901714Y-101798523D01*
X164854095Y-102941380D02*
X164854095Y-102417571D01*
X164806476Y-102322333D01*
X164711238Y-102274714D01*
X164520761Y-102274714D01*
X164425523Y-102322333D01*
X164854095Y-102893761D02*
X164758857Y-102941380D01*
X164520761Y-102941380D01*
X164425523Y-102893761D01*
X164377904Y-102798523D01*
X164377904Y-102703285D01*
X164425523Y-102608047D01*
X164520761Y-102560428D01*
X164758857Y-102560428D01*
X164854095Y-102512809D01*
X165330285Y-102274714D02*
X165330285Y-102941380D01*
X165330285Y-102369952D02*
X165377904Y-102322333D01*
X165473142Y-102274714D01*
X165616000Y-102274714D01*
X165711238Y-102322333D01*
X165758857Y-102417571D01*
X165758857Y-102941380D01*
X166235047Y-102941380D02*
X166235047Y-102274714D01*
X166235047Y-101941380D02*
X166187428Y-101989000D01*
X166235047Y-102036619D01*
X166282666Y-101989000D01*
X166235047Y-101941380D01*
X166235047Y-102036619D01*
X167139809Y-102274714D02*
X167139809Y-103084238D01*
X167092190Y-103179476D01*
X167044571Y-103227095D01*
X166949333Y-103274714D01*
X166806476Y-103274714D01*
X166711238Y-103227095D01*
X167139809Y-102893761D02*
X167044571Y-102941380D01*
X166854095Y-102941380D01*
X166758857Y-102893761D01*
X166711238Y-102846142D01*
X166663619Y-102750904D01*
X166663619Y-102465190D01*
X166711238Y-102369952D01*
X166758857Y-102322333D01*
X166854095Y-102274714D01*
X167044571Y-102274714D01*
X167139809Y-102322333D01*
X167616000Y-102941380D02*
X167616000Y-101941380D01*
X168044571Y-102941380D02*
X168044571Y-102417571D01*
X167996952Y-102322333D01*
X167901714Y-102274714D01*
X167758857Y-102274714D01*
X167663619Y-102322333D01*
X167616000Y-102369952D01*
X168377904Y-102274714D02*
X168758857Y-102274714D01*
X168520761Y-101941380D02*
X168520761Y-102798523D01*
X168568380Y-102893761D01*
X168663619Y-102941380D01*
X168758857Y-102941380D01*
X169092190Y-102941380D02*
X169092190Y-102274714D01*
X169092190Y-101941380D02*
X169044571Y-101989000D01*
X169092190Y-102036619D01*
X169139809Y-101989000D01*
X169092190Y-101941380D01*
X169092190Y-102036619D01*
X169568380Y-102274714D02*
X169568380Y-102941380D01*
X169568380Y-102369952D02*
X169616000Y-102322333D01*
X169711238Y-102274714D01*
X169854095Y-102274714D01*
X169949333Y-102322333D01*
X169996952Y-102417571D01*
X169996952Y-102941380D01*
D11*
X175225421Y-90166756D02*
X175225421Y-91309613D01*
X175225421Y-93341756D02*
X175225421Y-94484613D01*
X174653992Y-93913185D02*
X175796849Y-93913185D01*
D12*
G04 #@! TO.C,D1*
X131753000Y-95049000D02*
X134693000Y-95049000D01*
X134693000Y-95049000D02*
X134693000Y-89609000D01*
X134693000Y-89609000D02*
X131753000Y-89609000D01*
X131753000Y-89609000D02*
X131753000Y-95049000D01*
X133223000Y-96269000D02*
X133223000Y-95049000D01*
X133223000Y-88389000D02*
X133223000Y-89609000D01*
X131753000Y-94149000D02*
X134693000Y-94149000D01*
X131753000Y-94029000D02*
X134693000Y-94029000D01*
X131753000Y-94269000D02*
X134693000Y-94269000D01*
G04 #@! TO.C,R1*
X165635000Y-95980000D02*
X168375000Y-95980000D01*
X168375000Y-95980000D02*
X168375000Y-89440000D01*
X168375000Y-89440000D02*
X165635000Y-89440000D01*
X165635000Y-89440000D02*
X165635000Y-95980000D01*
X167005000Y-96750000D02*
X167005000Y-95980000D01*
X167005000Y-88670000D02*
X167005000Y-89440000D01*
G04 #@! TO.C,BT1*
X164617671Y-92029719D02*
G75*
G02X142172000Y-95575000I-11495671J-45281D01*
G01*
X142173754Y-95601384D02*
G75*
G03X141422000Y-95075000I-751754J-273616D01*
G01*
X164617671Y-92120281D02*
G75*
G03X142172000Y-88575000I-11495671J45281D01*
G01*
X142173754Y-88548616D02*
G75*
G02X141422000Y-89075000I-751754J273616D01*
G01*
X135722000Y-89075000D02*
X141422000Y-89075000D01*
X135722000Y-95075000D02*
X135722000Y-89075000D01*
X135722000Y-95075000D02*
X141422000Y-95075000D01*
G04 #@! TO.C,J1*
X171081564Y-95116185D02*
X173741564Y-95116185D01*
X171081564Y-92516185D02*
X171081564Y-95116185D01*
X173741564Y-92516185D02*
X173741564Y-95116185D01*
X171081564Y-92516185D02*
X173741564Y-92516185D01*
X171081564Y-91246185D02*
X171081564Y-89916185D01*
X171081564Y-89916185D02*
X172411564Y-89916185D01*
G04 #@! TO.C,D1*
D13*
X133675380Y-92686095D02*
X132675380Y-92686095D01*
X132675380Y-92448000D01*
X132723000Y-92305142D01*
X132818238Y-92209904D01*
X132913476Y-92162285D01*
X133103952Y-92114666D01*
X133246809Y-92114666D01*
X133437285Y-92162285D01*
X133532523Y-92209904D01*
X133627761Y-92305142D01*
X133675380Y-92448000D01*
X133675380Y-92686095D01*
X133675380Y-91162285D02*
X133675380Y-91733714D01*
X133675380Y-91448000D02*
X132675380Y-91448000D01*
X132818238Y-91543238D01*
X132913476Y-91638476D01*
X132961095Y-91733714D01*
X131775380Y-97670904D02*
X130775380Y-97670904D01*
X131775380Y-97099476D02*
X131203952Y-97528047D01*
X130775380Y-97099476D02*
X131346809Y-97670904D01*
G04 #@! TO.C,R1*
X167457380Y-92876666D02*
X166981190Y-93210000D01*
X167457380Y-93448095D02*
X166457380Y-93448095D01*
X166457380Y-93067142D01*
X166505000Y-92971904D01*
X166552619Y-92924285D01*
X166647857Y-92876666D01*
X166790714Y-92876666D01*
X166885952Y-92924285D01*
X166933571Y-92971904D01*
X166981190Y-93067142D01*
X166981190Y-93448095D01*
X167457380Y-91924285D02*
X167457380Y-92495714D01*
X167457380Y-92210000D02*
X166457380Y-92210000D01*
X166600238Y-92305238D01*
X166695476Y-92400476D01*
X166743095Y-92495714D01*
G04 #@! TO.C,BT1*
X137136285Y-87703571D02*
X137279142Y-87751190D01*
X137326761Y-87798809D01*
X137374380Y-87894047D01*
X137374380Y-88036904D01*
X137326761Y-88132142D01*
X137279142Y-88179761D01*
X137183904Y-88227380D01*
X136802952Y-88227380D01*
X136802952Y-87227380D01*
X137136285Y-87227380D01*
X137231523Y-87275000D01*
X137279142Y-87322619D01*
X137326761Y-87417857D01*
X137326761Y-87513095D01*
X137279142Y-87608333D01*
X137231523Y-87655952D01*
X137136285Y-87703571D01*
X136802952Y-87703571D01*
X137660095Y-87227380D02*
X138231523Y-87227380D01*
X137945809Y-88227380D02*
X137945809Y-87227380D01*
X139088666Y-88227380D02*
X138517238Y-88227380D01*
X138802952Y-88227380D02*
X138802952Y-87227380D01*
X138707714Y-87370238D01*
X138612476Y-87465476D01*
X138517238Y-87513095D01*
X140100571Y-92182142D02*
X141243428Y-92182142D01*
X140672000Y-92753571D02*
X140672000Y-91610714D01*
G04 #@! TO.C,J1*
X172078230Y-88368565D02*
X172078230Y-89082851D01*
X172030611Y-89225708D01*
X171935373Y-89320946D01*
X171792516Y-89368565D01*
X171697278Y-89368565D01*
X173078230Y-89368565D02*
X172506802Y-89368565D01*
X172792516Y-89368565D02*
X172792516Y-88368565D01*
X172697278Y-88511423D01*
X172602040Y-88606661D01*
X172506802Y-88654280D01*
G04 #@! TD*
M02*
