G04 #@! TF.GenerationSoftware,KiCad,Pcbnew,(5.0.1-3-g963ef8bb5)*
G04 #@! TF.CreationDate,2020-10-05T18:58:13+01:00*
G04 #@! TF.ProjectId,CMOS_Battery_Holder,434D4F535F426174746572795F486F6C,rev?*
G04 #@! TF.SameCoordinates,Original*
G04 #@! TF.FileFunction,Soldermask,Bot*
G04 #@! TF.FilePolarity,Negative*
%FSLAX46Y46*%
G04 Gerber Fmt 4.6, Leading zero omitted, Abs format (unit mm)*
G04 Created by KiCad (PCBNEW (5.0.1-3-g963ef8bb5)) date Monday, 05 October 2020 at 18:58:13*
%MOMM*%
%LPD*%
G01*
G04 APERTURE LIST*
%ADD10C,0.100000*%
G04 APERTURE END LIST*
D10*
G36*
X167253228Y-96971703D02*
X167408100Y-97035853D01*
X167547481Y-97128985D01*
X167666015Y-97247519D01*
X167759147Y-97386900D01*
X167823297Y-97541772D01*
X167856000Y-97706184D01*
X167856000Y-97873816D01*
X167823297Y-98038228D01*
X167759147Y-98193100D01*
X167666015Y-98332481D01*
X167547481Y-98451015D01*
X167408100Y-98544147D01*
X167253228Y-98608297D01*
X167088816Y-98641000D01*
X166921184Y-98641000D01*
X166756772Y-98608297D01*
X166601900Y-98544147D01*
X166462519Y-98451015D01*
X166343985Y-98332481D01*
X166250853Y-98193100D01*
X166186703Y-98038228D01*
X166154000Y-97873816D01*
X166154000Y-97706184D01*
X166186703Y-97541772D01*
X166250853Y-97386900D01*
X166343985Y-97247519D01*
X166462519Y-97128985D01*
X166601900Y-97035853D01*
X166756772Y-96971703D01*
X166921184Y-96939000D01*
X167088816Y-96939000D01*
X167253228Y-96971703D01*
X167253228Y-96971703D01*
G37*
G36*
X134174000Y-98360000D02*
X132272000Y-98360000D01*
X132272000Y-96458000D01*
X134174000Y-96458000D01*
X134174000Y-98360000D01*
X134174000Y-98360000D01*
G37*
G36*
X172522006Y-92891703D02*
X172588191Y-92898222D01*
X172701417Y-92932569D01*
X172758031Y-92949742D01*
X172896651Y-93023837D01*
X172914555Y-93033407D01*
X172950293Y-93062737D01*
X173051750Y-93145999D01*
X173135012Y-93247456D01*
X173164342Y-93283194D01*
X173164343Y-93283196D01*
X173248007Y-93439718D01*
X173248007Y-93439719D01*
X173299527Y-93609558D01*
X173316923Y-93786185D01*
X173299527Y-93962812D01*
X173265180Y-94076038D01*
X173248007Y-94132652D01*
X173173912Y-94271272D01*
X173164342Y-94289176D01*
X173135012Y-94324914D01*
X173051750Y-94426371D01*
X172950293Y-94509633D01*
X172914555Y-94538963D01*
X172914553Y-94538964D01*
X172758031Y-94622628D01*
X172701417Y-94639801D01*
X172588191Y-94674148D01*
X172522007Y-94680666D01*
X172455824Y-94687185D01*
X172367304Y-94687185D01*
X172301121Y-94680666D01*
X172234937Y-94674148D01*
X172121711Y-94639801D01*
X172065097Y-94622628D01*
X171908575Y-94538964D01*
X171908573Y-94538963D01*
X171872835Y-94509633D01*
X171771378Y-94426371D01*
X171688116Y-94324914D01*
X171658786Y-94289176D01*
X171649216Y-94271272D01*
X171575121Y-94132652D01*
X171557948Y-94076038D01*
X171523601Y-93962812D01*
X171506205Y-93786185D01*
X171523601Y-93609558D01*
X171575121Y-93439719D01*
X171575121Y-93439718D01*
X171658785Y-93283196D01*
X171658786Y-93283194D01*
X171688116Y-93247456D01*
X171771378Y-93145999D01*
X171872835Y-93062737D01*
X171908573Y-93033407D01*
X171926477Y-93023837D01*
X172065097Y-92949742D01*
X172121711Y-92932569D01*
X172234937Y-92898222D01*
X172301121Y-92891704D01*
X172367304Y-92885185D01*
X172455824Y-92885185D01*
X172522006Y-92891703D01*
X172522006Y-92891703D01*
G37*
G36*
X158764527Y-90563736D02*
X158864410Y-90583604D01*
X159146674Y-90700521D01*
X159400705Y-90870259D01*
X159616741Y-91086295D01*
X159786479Y-91340326D01*
X159903396Y-91622590D01*
X159963000Y-91922240D01*
X159963000Y-92227760D01*
X159903396Y-92527410D01*
X159786479Y-92809674D01*
X159616741Y-93063705D01*
X159400705Y-93279741D01*
X159146674Y-93449479D01*
X158864410Y-93566396D01*
X158764527Y-93586264D01*
X158564762Y-93626000D01*
X158259238Y-93626000D01*
X158059473Y-93586264D01*
X157959590Y-93566396D01*
X157677326Y-93449479D01*
X157423295Y-93279741D01*
X157207259Y-93063705D01*
X157037521Y-92809674D01*
X156920604Y-92527410D01*
X156861000Y-92227760D01*
X156861000Y-91922240D01*
X156920604Y-91622590D01*
X157037521Y-91340326D01*
X157207259Y-91086295D01*
X157423295Y-90870259D01*
X157677326Y-90700521D01*
X157959590Y-90583604D01*
X158059473Y-90563736D01*
X158259238Y-90524000D01*
X158564762Y-90524000D01*
X158764527Y-90563736D01*
X158764527Y-90563736D01*
G37*
G36*
X139473000Y-93626000D02*
X136371000Y-93626000D01*
X136371000Y-90524000D01*
X139473000Y-90524000D01*
X139473000Y-93626000D01*
X139473000Y-93626000D01*
G37*
G36*
X173312564Y-92147185D02*
X171510564Y-92147185D01*
X171510564Y-90345185D01*
X173312564Y-90345185D01*
X173312564Y-92147185D01*
X173312564Y-92147185D01*
G37*
G36*
X167171821Y-86791313D02*
X167171824Y-86791314D01*
X167171825Y-86791314D01*
X167332239Y-86839975D01*
X167332241Y-86839976D01*
X167332244Y-86839977D01*
X167480078Y-86918995D01*
X167609659Y-87025341D01*
X167716005Y-87154922D01*
X167795023Y-87302756D01*
X167843687Y-87463179D01*
X167860117Y-87630000D01*
X167843687Y-87796821D01*
X167795023Y-87957244D01*
X167716005Y-88105078D01*
X167609659Y-88234659D01*
X167480078Y-88341005D01*
X167332244Y-88420023D01*
X167332241Y-88420024D01*
X167332239Y-88420025D01*
X167171825Y-88468686D01*
X167171824Y-88468686D01*
X167171821Y-88468687D01*
X167046804Y-88481000D01*
X166963196Y-88481000D01*
X166838179Y-88468687D01*
X166838176Y-88468686D01*
X166838175Y-88468686D01*
X166677761Y-88420025D01*
X166677759Y-88420024D01*
X166677756Y-88420023D01*
X166529922Y-88341005D01*
X166400341Y-88234659D01*
X166293995Y-88105078D01*
X166214977Y-87957244D01*
X166166313Y-87796821D01*
X166149883Y-87630000D01*
X166166313Y-87463179D01*
X166214977Y-87302756D01*
X166293995Y-87154922D01*
X166400341Y-87025341D01*
X166529922Y-86918995D01*
X166677756Y-86839977D01*
X166677759Y-86839976D01*
X166677761Y-86839975D01*
X166838175Y-86791314D01*
X166838176Y-86791314D01*
X166838179Y-86791313D01*
X166963196Y-86779000D01*
X167046804Y-86779000D01*
X167171821Y-86791313D01*
X167171821Y-86791313D01*
G37*
G36*
X133409425Y-86311760D02*
X133409428Y-86311761D01*
X133409429Y-86311761D01*
X133588693Y-86366140D01*
X133588695Y-86366141D01*
X133753905Y-86454448D01*
X133898712Y-86573288D01*
X134017552Y-86718095D01*
X134082700Y-86839977D01*
X134105860Y-86883307D01*
X134116686Y-86918996D01*
X134160240Y-87062575D01*
X134178601Y-87249000D01*
X134160240Y-87435425D01*
X134105859Y-87614695D01*
X134017552Y-87779905D01*
X133898712Y-87924712D01*
X133753905Y-88043552D01*
X133753903Y-88043553D01*
X133588693Y-88131860D01*
X133409429Y-88186239D01*
X133409428Y-88186239D01*
X133409425Y-88186240D01*
X133269718Y-88200000D01*
X133176282Y-88200000D01*
X133036575Y-88186240D01*
X133036572Y-88186239D01*
X133036571Y-88186239D01*
X132857307Y-88131860D01*
X132692097Y-88043553D01*
X132692095Y-88043552D01*
X132547288Y-87924712D01*
X132428448Y-87779905D01*
X132340141Y-87614695D01*
X132285760Y-87435425D01*
X132267399Y-87249000D01*
X132285760Y-87062575D01*
X132329314Y-86918996D01*
X132340140Y-86883307D01*
X132363300Y-86839977D01*
X132428448Y-86718095D01*
X132547288Y-86573288D01*
X132692095Y-86454448D01*
X132857305Y-86366141D01*
X132857307Y-86366140D01*
X133036571Y-86311761D01*
X133036572Y-86311761D01*
X133036575Y-86311760D01*
X133176282Y-86298000D01*
X133269718Y-86298000D01*
X133409425Y-86311760D01*
X133409425Y-86311760D01*
G37*
M02*
